<svg xmlns="http://www.w3.org/2000/svg" width="1200" height="630" viewBox="0 0 1200 630" role="img" aria-labelledby="title desc">
  <title id="title">Professional content moving to an owned website</title>
  <desc id="desc">A calm editorial illustration showing a website as the center of a durable professional identity, with smaller social and discovery signals around it.</desc>
  <rect width="1200" height="630" fill="#f3f6f9"/>
  <rect x="82" y="70" width="1036" height="502" rx="26" fill="#ffffff" stroke="#dbe3eb" stroke-width="2"/>
  <rect x="82" y="70" width="1036" height="82" rx="26" fill="#0f4c81"/>
  <path d="M82 126h1036v31H82z" fill="#0f4c81"/>
  <circle cx="130" cy="111" r="10" fill="#f6b73c"/>
  <circle cx="166" cy="111" r="10" fill="#7abf7a"/>
  <circle cx="202" cy="111" r="10" fill="#e57373"/>
  <text x="250" y="119" fill="#e8f1f8" font-family="Manrope, Segoe UI, sans-serif" font-size="24" font-weight="700">ggnagarkar.com</text>

  <rect x="142" y="205" width="452" height="250" rx="18" fill="#e8f1f8" stroke="#c7d8e8"/>
  <rect x="180" y="248" width="254" height="22" rx="11" fill="#0f4c81"/>
  <rect x="180" y="293" width="340" height="12" rx="6" fill="#6b8fb0"/>
  <rect x="180" y="323" width="290" height="12" rx="6" fill="#6b8fb0"/>
  <rect x="180" y="353" width="322" height="12" rx="6" fill="#6b8fb0"/>
  <rect x="180" y="400" width="116" height="34" rx="17" fill="#0f4c81"/>
  <text x="208" y="422" fill="#ffffff" font-family="Manrope, Segoe UI, sans-serif" font-size="15" font-weight="700">Owned</text>

  <g fill="none" stroke="#9db5c9" stroke-width="3">
    <path d="M604 280 C690 214, 760 197, 842 220"/>
    <path d="M604 330 C710 330, 792 330, 900 330"/>
    <path d="M604 383 C693 449, 760 458, 845 420"/>
  </g>

  <g>
    <rect x="840" y="182" width="202" height="76" rx="18" fill="#ffffff" stroke="#dbe3eb" stroke-width="2"/>
    <circle cx="879" cy="220" r="18" fill="#0f4c81"/>
    <path d="M873 221h12M879 215v12" stroke="#ffffff" stroke-width="3" stroke-linecap="round"/>
    <text x="915" y="213" fill="#111827" font-family="Manrope, Segoe UI, sans-serif" font-size="18" font-weight="700">Discovery</text>
    <text x="915" y="236" fill="#6b7280" font-family="Manrope, Segoe UI, sans-serif" font-size="14">LinkedIn, search</text>
  </g>

  <g>
    <rect x="898" y="292" width="202" height="76" rx="18" fill="#ffffff" stroke="#dbe3eb" stroke-width="2"/>
    <circle cx="937" cy="330" r="18" fill="#7abf7a"/>
    <path d="M928 330h18" stroke="#ffffff" stroke-width="3" stroke-linecap="round"/>
    <text x="973" y="323" fill="#111827" font-family="Manrope, Segoe UI, sans-serif" font-size="18" font-weight="700">Archive</text>
    <text x="973" y="346" fill="#6b7280" font-family="Manrope, Segoe UI, sans-serif" font-size="14">Projects, patents</text>
  </g>

  <g>
    <rect x="842" y="402" width="202" height="76" rx="18" fill="#ffffff" stroke="#dbe3eb" stroke-width="2"/>
    <circle cx="881" cy="440" r="18" fill="#f6b73c"/>
    <path d="M874 445l7-14 7 14" stroke="#ffffff" stroke-width="3" stroke-linecap="round" stroke-linejoin="round"/>
    <text x="917" y="433" fill="#111827" font-family="Manrope, Segoe UI, sans-serif" font-size="18" font-weight="700">Durability</text>
    <text x="917" y="456" fill="#6b7280" font-family="Manrope, Segoe UI, sans-serif" font-size="14">Canonical home</text>
  </g>

  <text x="142" y="488" fill="#111827" font-family="Manrope, Segoe UI, sans-serif" font-size="32" font-weight="800">Professional content needs</text>
  <text x="142" y="526" fill="#111827" font-family="Manrope, Segoe UI, sans-serif" font-size="32" font-weight="800">a durable home.</text>
  <text x="142" y="554" fill="#6b7280" font-family="Manrope, Segoe UI, sans-serif" font-size="17">Discovery on platforms. Depth on the website.</text>
</svg>
