<svg xmlns="http://www.w3.org/2000/svg" width="1200" height="630" viewBox="0 0 1200 630" role="img" aria-labelledby="title desc">
  <title id="title">Reviewable AI workflows are the real enterprise feature</title>
  <desc id="desc">An editorial illustration showing an AI workflow moving through evidence, policy, human review, and audit trail checkpoints.</desc>
  <defs>
    <linearGradient id="background" x1="0" y1="0" x2="1" y2="1">
      <stop offset="0%" stop-color="#f8fafc"/>
      <stop offset="100%" stop-color="#eaf2f7"/>
    </linearGradient>
    <linearGradient id="core" x1="0" y1="0" x2="1" y2="1">
      <stop offset="0%" stop-color="#0f4c81"/>
      <stop offset="100%" stop-color="#137f8a"/>
    </linearGradient>
    <filter id="soft-shadow" x="-10%" y="-10%" width="120%" height="120%">
      <feDropShadow dx="0" dy="14" stdDeviation="18" flood-color="#0f172a" flood-opacity="0.12"/>
    </filter>
  </defs>

  <rect width="1200" height="630" fill="url(#background)"/>
  <path d="M0 514c126-52 236-60 331-27 93 32 166 83 291 72 128-11 186-102 332-89 91 8 163 51 246 92v68H0z" fill="#dbeafe" opacity="0.55"/>

  <rect x="70" y="58" width="1060" height="514" rx="28" fill="#ffffff" stroke="#dbe3eb" stroke-width="2" filter="url(#soft-shadow)"/>

  <g transform="translate(116 104)">
    <text x="0" y="0" fill="#0f172a" font-family="Manrope, Segoe UI, sans-serif" font-size="40" font-weight="800">Reviewable AI Workflows</text>
    <text x="0" y="43" fill="#334155" font-family="Manrope, Segoe UI, sans-serif" font-size="25" font-weight="700">Are The Real Enterprise Feature</text>
    <text x="0" y="82" fill="#64748b" font-family="Manrope, Segoe UI, sans-serif" font-size="18" font-weight="600">Evidence, access boundaries, human approval, and audit trails.</text>
  </g>

  <g transform="translate(122 236)">
    <rect x="0" y="0" width="198" height="164" rx="20" fill="#f8fafc" stroke="#dbe3eb" stroke-width="2"/>
    <circle cx="42" cy="45" r="20" fill="#0f4c81"/>
    <path d="M32 45h20M42 35v20" stroke="#ffffff" stroke-width="4" stroke-linecap="round"/>
    <text x="74" y="42" fill="#0f172a" font-family="Manrope, Segoe UI, sans-serif" font-size="20" font-weight="800">Request</text>
    <text x="74" y="67" fill="#64748b" font-family="Manrope, Segoe UI, sans-serif" font-size="14" font-weight="600">goal and scope</text>
    <rect x="28" y="102" width="142" height="12" rx="6" fill="#cbd5e1"/>
    <rect x="28" y="128" width="96" height="12" rx="6" fill="#cbd5e1"/>
  </g>

  <g transform="translate(380 236)">
    <rect x="0" y="0" width="198" height="164" rx="20" fill="#f8fafc" stroke="#dbe3eb" stroke-width="2"/>
    <circle cx="42" cy="45" r="20" fill="#137f8a"/>
    <path d="M32 50l7-9 8 6 12-15" fill="none" stroke="#ffffff" stroke-width="4" stroke-linecap="round" stroke-linejoin="round"/>
    <text x="74" y="42" fill="#0f172a" font-family="Manrope, Segoe UI, sans-serif" font-size="20" font-weight="800">Evidence</text>
    <text x="74" y="67" fill="#64748b" font-family="Manrope, Segoe UI, sans-serif" font-size="14" font-weight="600">logs and facts</text>
    <rect x="28" y="102" width="54" height="30" rx="15" fill="#e0f2fe"/>
    <rect x="94" y="102" width="76" height="30" rx="15" fill="#dcfce7"/>
    <rect x="28" y="140" width="118" height="10" rx="5" fill="#cbd5e1"/>
  </g>

  <g transform="translate(638 236)">
    <rect x="0" y="0" width="198" height="164" rx="20" fill="#f8fafc" stroke="#dbe3eb" stroke-width="2"/>
    <circle cx="42" cy="45" r="20" fill="#f6b73c"/>
    <path d="M33 45h18M42 36v18" stroke="#ffffff" stroke-width="4" stroke-linecap="round"/>
    <text x="74" y="42" fill="#0f172a" font-family="Manrope, Segoe UI, sans-serif" font-size="20" font-weight="800">Review</text>
    <text x="74" y="67" fill="#64748b" font-family="Manrope, Segoe UI, sans-serif" font-size="14" font-weight="600">approval point</text>
    <rect x="28" y="102" width="142" height="42" rx="21" fill="#fff7ed" stroke="#fed7aa"/>
    <text x="56" y="129" fill="#9a3412" font-family="Manrope, Segoe UI, sans-serif" font-size="15" font-weight="800">Human in loop</text>
  </g>

  <g transform="translate(896 236)">
    <rect x="0" y="0" width="198" height="164" rx="20" fill="#f8fafc" stroke="#dbe3eb" stroke-width="2"/>
    <circle cx="42" cy="45" r="20" fill="#7abf7a"/>
    <path d="M32 45l8 8 15-18" fill="none" stroke="#ffffff" stroke-width="4" stroke-linecap="round" stroke-linejoin="round"/>
    <text x="74" y="42" fill="#0f172a" font-family="Manrope, Segoe UI, sans-serif" font-size="20" font-weight="800">Audit</text>
    <text x="74" y="67" fill="#64748b" font-family="Manrope, Segoe UI, sans-serif" font-size="14" font-weight="600">trace and learn</text>
    <rect x="28" y="102" width="142" height="12" rx="6" fill="#cbd5e1"/>
    <rect x="28" y="128" width="112" height="12" rx="6" fill="#cbd5e1"/>
  </g>

  <g fill="none" stroke="#94a3b8" stroke-width="4" stroke-linecap="round" stroke-linejoin="round">
    <path d="M324 318h50"/>
    <path d="M365 309l10 9-10 9"/>
    <path d="M582 318h50"/>
    <path d="M623 309l10 9-10 9"/>
    <path d="M840 318h50"/>
    <path d="M881 309l10 9-10 9"/>
  </g>

  <g transform="translate(262 430)">
    <rect x="0" y="0" width="676" height="58" rx="29" fill="url(#core)"/>
    <text x="34" y="37" fill="#ffffff" font-family="Manrope, Segoe UI, sans-serif" font-size="18" font-weight="800">Autonomy is useful only when the workflow stays inspectable.</text>
  </g>

  <g transform="translate(116 514)">
    <text x="0" y="0" fill="#64748b" font-family="Manrope, Segoe UI, sans-serif" font-size="15" font-weight="700">GG Nagarkar</text>
    <text x="0" y="25" fill="#94a3b8" font-family="Manrope, Segoe UI, sans-serif" font-size="14" font-weight="600">Enterprise AI - DevOps - SRE - AI Security</text>
  </g>
</svg>
