<svg width="1200" height="630" viewBox="0 0 1200 630" fill="none" xmlns="http://www.w3.org/2000/svg" role="img" aria-labelledby="title desc">
  <title id="title">Shared investigation state for AI operations cost and control</title>
  <desc id="desc">Editorial diagram showing alerts, service knowledge graph, shared investigation state, SRE teams, and centralized LLM cost controls.</desc>
  <rect width="1200" height="630" fill="#0B1220"/>
  <rect x="72" y="78" width="1056" height="474" rx="28" fill="#111C2F" stroke="#26364F" stroke-width="2"/>
  <path d="M147 456C249 350 337 370 438 259C548 137 689 167 790 249C881 323 959 323 1061 226" stroke="#1F8A70" stroke-width="4" stroke-linecap="round" opacity="0.55"/>
  <g opacity="0.18">
    <path d="M140 166H1060" stroke="#E5E7EB"/>
    <path d="M140 244H1060" stroke="#E5E7EB"/>
    <path d="M140 322H1060" stroke="#E5E7EB"/>
    <path d="M140 400H1060" stroke="#E5E7EB"/>
    <path d="M140 478H1060" stroke="#E5E7EB"/>
  </g>
  <g>
    <rect x="132" y="154" width="206" height="96" rx="16" fill="#18263C" stroke="#3A4D6B"/>
    <text x="160" y="190" fill="#E5E7EB" font-family="Inter, Arial, sans-serif" font-size="24" font-weight="700">Alerts</text>
    <text x="160" y="220" fill="#9CA3AF" font-family="Inter, Arial, sans-serif" font-size="16">Signals arrive once</text>
  </g>
  <g>
    <rect x="132" y="304" width="206" height="96" rx="16" fill="#18263C" stroke="#3A4D6B"/>
    <text x="160" y="340" fill="#E5E7EB" font-family="Inter, Arial, sans-serif" font-size="24" font-weight="700">SRE teams</text>
    <text x="160" y="370" fill="#9CA3AF" font-family="Inter, Arial, sans-serif" font-size="16">Many responders</text>
  </g>
  <g>
    <rect x="430" y="112" width="340" height="128" rx="20" fill="#12362F" stroke="#1F8A70" stroke-width="2"/>
    <text x="470" y="154" fill="#F9FAFB" font-family="Inter, Arial, sans-serif" font-size="28" font-weight="800">Service Knowledge Graph</text>
    <text x="470" y="190" fill="#B7E4D6" font-family="Inter, Arial, sans-serif" font-size="18">Ownership, dependencies, deploys,</text>
    <text x="470" y="216" fill="#B7E4D6" font-family="Inter, Arial, sans-serif" font-size="18">runbooks, history, infra state</text>
  </g>
  <g>
    <rect x="416" y="304" width="368" height="148" rx="22" fill="#172033" stroke="#F59E0B" stroke-width="2"/>
    <text x="462" y="350" fill="#F9FAFB" font-family="Inter, Arial, sans-serif" font-size="30" font-weight="800">Shared investigation state</text>
    <text x="462" y="388" fill="#FDE68A" font-family="Inter, Arial, sans-serif" font-size="18">One discovery pass, reused by all</text>
    <text x="462" y="416" fill="#FDE68A" font-family="Inter, Arial, sans-serif" font-size="18">responders and follow-up workflows</text>
  </g>
  <g>
    <rect x="862" y="154" width="210" height="96" rx="16" fill="#18263C" stroke="#3A4D6B"/>
    <text x="890" y="190" fill="#E5E7EB" font-family="Inter, Arial, sans-serif" font-size="24" font-weight="700">LLM usage</text>
    <text x="890" y="220" fill="#9CA3AF" font-family="Inter, Arial, sans-serif" font-size="16">Tokens and cost</text>
  </g>
  <g>
    <rect x="862" y="304" width="210" height="96" rx="16" fill="#18263C" stroke="#3A4D6B"/>
    <text x="890" y="340" fill="#E5E7EB" font-family="Inter, Arial, sans-serif" font-size="24" font-weight="700">Control</text>
    <text x="890" y="370" fill="#9CA3AF" font-family="Inter, Arial, sans-serif" font-size="16">Central account</text>
  </g>
  <path d="M338 202H430" stroke="#6B7280" stroke-width="4" stroke-linecap="round"/>
  <path d="M600 240V304" stroke="#6B7280" stroke-width="4" stroke-linecap="round"/>
  <path d="M338 352H416" stroke="#6B7280" stroke-width="4" stroke-linecap="round"/>
  <path d="M784 352H862" stroke="#6B7280" stroke-width="4" stroke-linecap="round"/>
  <path d="M770 202H862" stroke="#6B7280" stroke-width="4" stroke-linecap="round"/>
  <circle cx="600" cy="378" r="8" fill="#F59E0B"/>
  <circle cx="600" cy="176" r="8" fill="#1F8A70"/>
  <text x="96" y="580" fill="#CBD5E1" font-family="Inter, Arial, sans-serif" font-size="24" font-weight="700">Reuse context. Reduce repeated discovery. Control AI spend.</text>
</svg>
